<?xml version="1.0" encoding="UTF-8"?>
<svg width="166px" height="67px" viewBox="0 0 166 67" version="1.1" xmlns="http://www.w3.org/2000/svg" xmlns:xlink="http://www.w3.org/1999/xlink">
    <title>logo</title>
    <g id="Page-1" stroke="none" stroke-width="1" fill="none" fill-rule="evenodd">
        <g id="logo" transform="translate(1.000000, 0.000000)">
            <path d="M92.445,45.643 C85.01,45.646 77.574,45.65 70.138,45.655 C69.862,45.655 69.638,45.879 69.6389967,46.155 C69.6389967,46.431 69.863,46.655 70.1389967,46.655 C77.574,46.65 85.01,46.646 92.445,46.643 C92.722,46.643 92.945,46.419 92.945,46.143 C92.945,45.866 92.721,45.643 92.445,45.643" id="Fill-172" fill="#121514"></path>
            <path d="M71.521,7.32 C77.705,7.378 83.89,7.425 90.075,7.461 C90.351,7.463 90.576,7.24 90.5780133,6.964 C90.58,6.688 90.357,6.463 90.081,6.461 C83.897,6.425 77.713,6.378 71.53,6.321 C71.254,6.318 71.028,6.54 71.0249866,6.816 C71.023,7.092 71.245,7.318 71.521,7.321" id="Fill-173" fill="#121514"></path>
            <path d="M2.792,31.319614 L2.792,23.619614 L1.362,23.619614 L1.362,31.319614 L2.792,31.319614 Z M8.863,31.319614 L8.863,24.829614 L11.415,24.829614 L11.415,23.619614 L4.881,23.619614 L4.881,24.829614 L7.433,24.829614 L7.433,31.319614 L8.863,31.319614 Z M13.493,31.319614 L14.252,29.537614 L18.102,29.537614 L18.872,31.319614 L20.368,31.319614 L16.892,23.619614 L15.484,23.619614 L12.019,31.319614 L13.493,31.319614 Z M17.629,28.415614 L14.736,28.415614 L16.177,25.049614 L17.629,28.415614 Z M27.803,31.319614 L27.803,30.109614 L23.777,30.109614 L23.777,23.619614 L22.347,23.619614 L22.347,31.319614 L27.803,31.319614 Z M31.366,31.319614 L31.366,23.619614 L29.936,23.619614 L29.936,31.319614 L31.366,31.319614 Z M34.83,31.319614 L35.589,29.537614 L39.439,29.537614 L40.209,31.319614 L41.705,31.319614 L38.229,23.619614 L36.821,23.619614 L33.356,31.319614 L34.83,31.319614 Z M38.966,28.415614 L36.073,28.415614 L37.514,25.049614 L38.966,28.415614 Z M45.103,31.319614 L45.103,26.105614 L49.349,31.319614 L50.526,31.319614 L50.526,23.619614 L49.107,23.619614 L49.107,28.833614 L44.861,23.619614 L43.684,23.619614 L43.684,31.319614 L45.103,31.319614 Z" id="ITALIAN" fill="#262928" fill-rule="nonzero"></path>
            <path d="M118.282,32.319614 L118.282,29.463614 L120.612125,29.462739 C120.722375,29.460989 120.809,29.456614 120.872,29.449614 L120.872,29.449614 L122.874,32.319614 L124.834,32.319614 L122.58,29.099614 C123.252,28.8382806 123.767667,28.441614 124.127,27.909614 C124.486333,27.377614 124.666,26.7429473 124.666,26.005614 C124.666,25.2869473 124.498,24.6662806 124.162,24.143614 C123.826,23.6209473 123.343,23.219614 122.713,22.939614 C122.083,22.659614 121.343333,22.519614 120.494,22.519614 L120.494,22.519614 L116.462,22.519614 L116.462,32.319614 L118.282,32.319614 Z M120.41,27.965614 L118.282,27.965614 L118.282,24.059614 L120.41,24.059614 C121.203333,24.059614 121.805333,24.227614 122.216,24.563614 C122.626667,24.899614 122.832,25.3802806 122.832,26.005614 C122.832,26.6309473 122.626667,27.1139473 122.216,27.454614 C121.805333,27.7952806 121.203333,27.965614 120.41,27.965614 L120.41,27.965614 Z M137.046,32.319614 L137.046,30.793614 L131.516,30.793614 L131.516,28.091614 L136.248,28.091614 L136.248,26.593614 L131.516,26.593614 L131.516,24.045614 L136.85,24.045614 L136.85,22.519614 L129.696,22.519614 L129.696,32.319614 L137.046,32.319614 Z M145.114,32.459614 C145.972667,32.459614 146.700667,32.3289473 147.298,32.067614 C147.895333,31.8062806 148.341,31.4562806 148.635,31.017614 C148.929,30.5789473 149.076,30.0889473 149.076,29.547614 C149.076,28.9129473 148.910333,28.4089473 148.579,28.035614 C148.247667,27.6622806 147.848667,27.384614 147.382,27.202614 C146.915333,27.020614 146.318,26.845614 145.59,26.677614 C145.058,26.5469473 144.638,26.4302806 144.33,26.327614 C144.022,26.2249473 143.767667,26.0849473 143.567,25.907614 C143.366333,25.7302806 143.266,25.501614 143.266,25.221614 C143.266,24.8202806 143.441,24.4982806 143.791,24.255614 C144.141,24.0129473 144.675333,23.891614 145.394,23.891614 C145.832667,23.891614 146.285333,23.9569473 146.752,24.087614 C147.218667,24.2182806 147.666667,24.409614 148.096,24.661614 L148.096,24.661614 L148.67,23.247614 C148.25,22.967614 147.750667,22.7529473 147.172,22.603614 C146.593333,22.4542806 146.005333,22.379614 145.408,22.379614 C144.549333,22.379614 143.823667,22.5102806 143.231,22.771614 C142.638333,23.0329473 142.195,23.3852806 141.901,23.828614 C141.607,24.2719473 141.46,24.7642806 141.46,25.305614 C141.46,25.949614 141.625667,26.460614 141.957,26.838614 C142.288333,27.216614 142.685,27.4942806 143.147,27.671614 C143.609,27.8489473 144.213333,28.0262806 144.96,28.203614 C145.492,28.3342806 145.912,28.4509473 146.22,28.553614 C146.528,28.6562806 146.782333,28.798614 146.983,28.980614 C147.183667,29.162614 147.284,29.393614 147.284,29.673614 C147.284,30.0562806 147.104333,30.3642806 146.745,30.597614 C146.385667,30.8309473 145.842,30.947614 145.114,30.947614 C144.526,30.947614 143.940333,30.8472806 143.357,30.646614 C142.773667,30.4459473 142.281333,30.1869473 141.88,29.869614 L141.88,29.869614 L141.25,31.283614 C141.660667,31.6382806 142.218333,31.9229473 142.923,32.137614 C143.627667,32.3522806 144.358,32.459614 145.114,32.459614 Z M157.55,32.319614 L157.55,24.059614 L160.798,24.059614 L160.798,22.519614 L152.482,22.519614 L152.482,24.059614 L155.73,24.059614 L155.73,32.319614 L157.55,32.319614 Z" id="REST" fill="#262928" fill-rule="nonzero"></path>
            <path d="M82.374,0.5 C71.37,0.5 61.971,7.343 58.181,17.003 L106.568,17.003 C102.778,7.343 93.379,0.5 82.374,0.5" id="Fill-174" fill="#169045"></path>
            <path d="M82.374,0.5 L82.374,1.42108547e-14 C71.158,0.001 61.578,6.974 57.715,16.821 L57.447,17.503 L107.302,17.503 L107.034,16.821 C103.171,6.974 93.591,0.001 82.374,1.42108547e-14 L82.374,1 C93.167,1 102.385,7.712 106.103,17.186 L106.568,17.003 L106.568,16.503 L58.181,16.503 L58.181,17.003 L58.646,17.186 C62.364,7.712 71.582,1 82.374,1 L82.374,0.5" id="Fill-175" fill="#262928"></path>
            <path d="M82.374,52.475 C93.379,52.475 102.778,45.632 106.568,35.972 L58.181,35.972 C61.971,45.632 71.37,52.475 82.374,52.475" id="Fill-176" fill="#D5232F"></path>
            <path d="M82.374,52.475 L82.374,52.975 C93.591,52.974 103.171,46.001 107.034,36.154 L107.302,35.472 L57.447,35.472 L57.715,36.154 C61.578,46.001 71.158,52.974 82.374,52.975 L82.374,51.975 C71.582,51.975 62.364,45.263 58.646,35.789 L58.181,35.972 L58.181,36.472 L106.568,36.472 L106.568,35.972 L106.103,35.789 C102.385,45.263 93.167,51.975 82.374,51.975 L82.374,52.475" id="Fill-177" fill="#262928"></path>
            <path d="M106.568,17.003 L58.181,17.003 C57.027,19.943 56.387,23.14 56.387,26.488 C56.387,29.836 57.027,33.033 58.181,35.972 L106.568,35.972 C107.722,33.033 108.362,29.836 108.362,26.488 C108.362,23.14 107.722,19.943 106.568,17.003" id="Fill-178" fill="#FFFFFE"></path>
            <path d="M106.568,17.003 L106.568,16.503 L57.84,16.503 L57.715,16.82 C56.54,19.816 55.887,23.076 55.887,26.488 C55.887,29.9 56.54,33.16 57.715,36.155 L57.84,36.472 L106.909,36.472 L107.034,36.155 C108.209,33.16 108.862,29.9 108.862,26.488 C108.862,23.076 108.209,19.816 107.034,16.82 L106.909,16.503 L106.568,16.503 L106.568,17.003 L106.103,17.186 C107.234,20.069 107.862,23.204 107.862,26.488 C107.862,29.772 107.234,32.907 106.103,35.789 L106.568,35.972 L106.568,35.472 L58.181,35.472 L58.181,35.972 L58.646,35.789 C57.515,32.907 56.887,29.772 56.887,26.488 C56.887,23.204 57.515,20.069 58.646,17.186 L58.181,17.003 L58.181,17.503 L106.568,17.503 L106.568,17.003 L106.103,17.186 L106.568,17.003" id="Fill-179" fill="#262928"></path>
            <path d="M26.731,65.3904662 C27.6916667,65.3904662 28.4231667,65.2107995 28.9255,64.8514662 C29.4278333,64.4921329 29.679,63.9787995 29.679,63.3114662 C29.679,62.8127995 29.5506667,62.4002995 29.294,62.0739662 C29.0373333,61.7476329 28.6853333,61.5221329 28.238,61.3974662 C28.5533333,61.2434662 28.8045,61.0197995 28.9915,60.7264662 C29.1785,60.4331329 29.272,60.0847995 29.272,59.6814662 C29.272,59.0581329 29.0318333,58.5704662 28.5515,58.2184662 C28.0711667,57.8664662 27.391,57.6904662 26.511,57.6904662 L26.511,57.6904662 L23.057,57.6904662 L23.057,65.3904662 L26.731,65.3904662 Z M26.412,61.0454662 L24.157,61.0454662 L24.157,58.5814662 L26.412,58.5814662 C26.9766667,58.5814662 27.4111667,58.6859662 27.7155,58.8949662 C28.0198333,59.1039662 28.172,59.4101329 28.172,59.8134662 C28.172,60.2167995 28.0198333,60.5229662 27.7155,60.7319662 C27.4111667,60.9409662 26.9766667,61.0454662 26.412,61.0454662 L26.412,61.0454662 Z M26.687,64.4994662 L24.157,64.4994662 L24.157,61.9364662 L26.687,61.9364662 C27.941,61.9364662 28.568,62.3654662 28.568,63.2234662 C28.568,63.6634662 28.4103333,63.9861329 28.095,64.1914662 C27.7796667,64.3967995 27.3103333,64.4994662 26.687,64.4994662 L26.687,64.4994662 Z M34.626,65.4564662 C35.11,65.4564662 35.5481667,65.3757995 35.9405,65.2144662 C36.3328333,65.0531329 36.661,64.8184662 36.925,64.5104662 L36.925,64.5104662 L36.342,63.8284662 C35.9166667,64.2977995 35.3556667,64.5324662 34.659,64.5324662 C34.087,64.5324662 33.6085,64.3766329 33.2235,64.0649662 C32.8385,63.7532995 32.613,63.3407995 32.547,62.8274662 L32.547,62.8274662 L37.277,62.8274662 C37.2916667,62.6954662 37.299,62.5891329 37.299,62.5084662 C37.299,61.9217995 37.1761667,61.4011329 36.9305,60.9464662 C36.6848333,60.4917995 36.3438333,60.1379662 35.9075,59.8849662 C35.4711667,59.6319662 34.9743333,59.5054662 34.417,59.5054662 C33.8596667,59.5054662 33.3591667,59.6319662 32.9155,59.8849662 C32.4718333,60.1379662 32.1235,60.4917995 31.8705,60.9464662 C31.6175,61.4011329 31.491,61.9107995 31.491,62.4754662 C31.491,63.0474662 31.6211667,63.5607995 31.8815,64.0154662 C32.1418333,64.4701329 32.5103333,64.8239662 32.987,65.0769662 C33.4636667,65.3299662 34.01,65.4564662 34.626,65.4564662 Z M36.287,62.0684662 L32.547,62.0684662 C32.6056667,61.5697995 32.8055,61.1664662 33.1465,60.8584662 C33.4875,60.5504662 33.911,60.3964662 34.417,60.3964662 C34.923,60.3964662 35.3465,60.5522995 35.6875,60.8639662 C36.0285,61.1756329 36.2283333,61.5771329 36.287,62.0684662 L36.287,62.0684662 Z M41.234,65.4564662 C42.0113333,65.4564662 42.6255,65.3006329 43.0765,64.9889662 C43.5275,64.6772995 43.753,64.2574662 43.753,63.7294662 C43.753,63.3334662 43.6503333,63.0254662 43.445,62.8054662 C43.2396667,62.5854662 42.9921667,62.4296329 42.7025,62.3379662 C42.4128333,62.2462995 42.0333333,62.1601329 41.564,62.0794662 C41.212,62.0134662 40.9388333,61.9547995 40.7445,61.9034662 C40.5501667,61.8521329 40.387,61.7714662 40.255,61.6614662 C40.123,61.5514662 40.057,61.4011329 40.057,61.2104662 C40.057,60.9684662 40.1743333,60.7741329 40.409,60.6274662 C40.6436667,60.4807995 40.9846667,60.4074662 41.432,60.4074662 C42.0773333,60.4074662 42.6383333,60.5614662 43.115,60.8694662 L43.115,60.8694662 L43.566,60.0334662 C43.3166667,59.8721329 42.9976667,59.7437995 42.609,59.6484662 C42.2203333,59.5531329 41.8316667,59.5054662 41.443,59.5054662 C40.7023333,59.5054662 40.112,59.6649662 39.672,59.9839662 C39.232,60.3029662 39.012,60.7264662 39.012,61.2544662 C39.012,61.6651329 39.1183333,61.9841329 39.331,62.2114662 C39.5436667,62.4387995 39.7985,62.6001329 40.0955,62.6954662 C40.3925,62.7907995 40.7756667,62.8751329 41.245,62.9484662 C41.5896667,63.0071329 41.8555,63.0602995 42.0425,63.1079662 C42.2295,63.1556329 42.3853333,63.2307995 42.51,63.3334662 C42.6346667,63.4361329 42.697,63.5754662 42.697,63.7514662 C42.697,64.2794662 42.235,64.5434662 41.311,64.5434662 C40.937,64.5434662 40.5666667,64.4884662 40.2,64.3784662 C39.8333333,64.2684662 39.5216667,64.1217995 39.265,63.9384662 L39.265,63.9384662 L38.825,64.7744662 C39.0743333,64.9724662 39.419,65.1356329 39.859,65.2639662 C40.299,65.3922995 40.7573333,65.4564662 41.234,65.4564662 Z M47.875,65.4564662 C48.117,65.4564662 48.3516667,65.4216329 48.579,65.3519662 C48.8063333,65.2822995 48.997,65.1814662 49.151,65.0494662 L49.151,65.0494662 L48.821,64.2904662 C48.5936667,64.4737995 48.3186667,64.5654662 47.996,64.5654662 C47.7026667,64.5654662 47.4771667,64.4811329 47.3195,64.3124662 C47.1618333,64.1437995 47.083,63.9017995 47.083,63.5864662 L47.083,63.5864662 L47.083,60.4294662 L48.755,60.4294662 L48.755,59.5604662 L47.083,59.5604662 L47.083,58.2844662 L46.027,58.2844662 L46.027,59.5604662 L45.037,59.5604662 L45.037,60.4294662 L46.027,60.4294662 L46.027,63.6304662 C46.027,64.2171329 46.1883333,64.6681329 46.511,64.9834662 C46.8336667,65.2987995 47.2883333,65.4564662 47.875,65.4564662 Z M56.24,65.3904662 L56.24,63.0584662 L58.143,63.0584662 C59.1403333,63.0584662 59.925,62.8201329 60.497,62.3434662 C61.069,61.8667995 61.355,61.2104662 61.355,60.3744662 C61.355,59.5384662 61.069,58.8821329 60.497,58.4054662 C59.925,57.9287995 59.1403333,57.6904662 58.143,57.6904662 L58.143,57.6904662 L55.14,57.6904662 L55.14,65.3904662 L56.24,65.3904662 Z M58.11,62.1014662 L56.24,62.1014662 L56.24,58.6474662 L58.11,58.6474662 C58.8066667,58.6474662 59.3383333,58.7959662 59.705,59.0929662 C60.0716667,59.3899662 60.255,59.8171329 60.255,60.3744662 C60.255,60.9317995 60.0716667,61.3589662 59.705,61.6559662 C59.3383333,61.9529662 58.8066667,62.1014662 58.11,62.1014662 L58.11,62.1014662 Z M64.047,58.4384662 C64.2523333,58.4384662 64.4228333,58.3706329 64.5585,58.2349662 C64.6941667,58.0992995 64.762,57.9324662 64.762,57.7344662 C64.762,57.5437995 64.6941667,57.3842995 64.5585,57.2559662 C64.4228333,57.1276329 64.2523333,57.0634662 64.047,57.0634662 C63.8416667,57.0634662 63.6711667,57.1312995 63.5355,57.2669662 C63.3998333,57.4026329 63.332,57.5657995 63.332,57.7564662 C63.332,57.9471329 63.3998333,58.1084662 63.5355,58.2404662 C63.6711667,58.3724662 63.8416667,58.4384662 64.047,58.4384662 Z M64.575,65.3904662 L64.575,59.5604662 L63.519,59.5604662 L63.519,65.3904662 L64.575,65.3904662 Z M71.711,65.3904662 L71.711,64.5214662 L68.18,64.5214662 L71.623,60.2534662 L71.623,59.5604662 L66.893,59.5604662 L66.893,60.4294662 L70.27,60.4294662 L66.827,64.7084662 L66.827,65.3904662 L71.711,65.3904662 Z M78.242,65.3904662 L78.242,64.5214662 L74.711,64.5214662 L78.154,60.2534662 L78.154,59.5604662 L73.424,59.5604662 L73.424,60.4294662 L76.801,60.4294662 L73.358,64.7084662 L73.358,65.3904662 L78.242,65.3904662 Z M82.155,65.4564662 C82.6023333,65.4564662 82.9891667,65.3849662 83.3155,65.2419662 C83.6418333,65.0989662 83.893,64.8917995 84.069,64.6204662 L84.069,64.6204662 L84.069,65.3904662 L85.07,65.3904662 L85.07,61.8704662 C85.07,61.0857995 84.8555,60.4954662 84.4265,60.0994662 C83.9975,59.7034662 83.3796667,59.5054662 82.573,59.5054662 C82.1036667,59.5054662 81.66,59.5696329 81.242,59.6979662 C80.824,59.8262995 80.4646667,60.0114662 80.164,60.2534662 L80.164,60.2534662 L80.604,61.0454662 C80.8313333,60.8547995 81.11,60.7026329 81.44,60.5889662 C81.77,60.4752995 82.1073333,60.4184662 82.452,60.4184662 C82.9653333,60.4184662 83.354,60.5394662 83.618,60.7814662 C83.882,61.0234662 84.014,61.3717995 84.014,61.8264662 L84.014,61.8264662 L84.014,62.0354662 L82.342,62.0354662 C81.528,62.0354662 80.934,62.1912995 80.56,62.5029662 C80.186,62.8146329 79.999,63.2271329 79.999,63.7404662 C79.999,64.2537995 80.1951667,64.6681329 80.5875,64.9834662 C80.9798333,65.2987995 81.5023333,65.4564662 82.155,65.4564662 Z M82.331,64.6424662 C81.9276667,64.6424662 81.6123333,64.5581329 81.385,64.3894662 C81.1576667,64.2207995 81.044,63.9897995 81.044,63.6964662 C81.044,63.0951329 81.4913333,62.7944662 82.386,62.7944662 L82.386,62.7944662 L84.014,62.7944662 L84.014,63.6084662 C83.882,63.9384662 83.6693333,64.1932995 83.376,64.3729662 C83.0826667,64.5526329 82.7343333,64.6424662 82.331,64.6424662 Z M92.841,65.3904662 L92.841,57.6904662 L91.741,57.6904662 L91.741,65.3904662 L92.841,65.3904662 Z M96.853,65.3904662 L96.853,62.3874662 C96.853,61.7641329 97.018,61.2856329 97.348,60.9519662 C97.678,60.6182995 98.129,60.4514662 98.701,60.4514662 C99.207,60.4514662 99.5956667,60.5944662 99.867,60.8804662 C100.138333,61.1664662 100.274,61.5917995 100.274,62.1564662 L100.274,62.1564662 L100.274,65.3904662 L101.33,65.3904662 L101.33,62.0354662 C101.33,61.2067995 101.111833,60.5779662 100.6755,60.1489662 C100.239167,59.7199662 99.6506667,59.5054662 98.91,59.5054662 C98.448,59.5054662 98.0355,59.5861329 97.6725,59.7474662 C97.3095,59.9087995 97.0216667,60.1397995 96.809,60.4404662 L96.809,60.4404662 L96.809,59.5604662 L95.797,59.5604662 L95.797,65.3904662 L96.853,65.3904662 Z M110.619,65.3904662 L110.619,58.6474662 L113.259,58.6474662 L113.259,57.6904662 L106.89,57.6904662 L106.89,58.6474662 L109.53,58.6474662 L109.53,65.3904662 L110.619,65.3904662 Z M116.996,65.4564662 C117.575333,65.4564662 118.094167,65.3281329 118.5525,65.0714662 C119.010833,64.8147995 119.370167,64.4609662 119.6305,64.0099662 C119.890833,63.5589662 120.021,63.0474662 120.021,62.4754662 C120.021,61.9034662 119.890833,61.3919662 119.6305,60.9409662 C119.370167,60.4899662 119.010833,60.1379662 118.5525,59.8849662 C118.094167,59.6319662 117.575333,59.5054662 116.996,59.5054662 C116.416667,59.5054662 115.896,59.6319662 115.434,59.8849662 C114.972,60.1379662 114.610833,60.4899662 114.3505,60.9409662 C114.090167,61.3919662 113.96,61.9034662 113.96,62.4754662 C113.96,63.0474662 114.090167,63.5589662 114.3505,64.0099662 C114.610833,64.4609662 114.972,64.8147995 115.434,65.0714662 C115.896,65.3281329 116.416667,65.4564662 116.996,65.4564662 Z M116.996,64.5324662 C116.622,64.5324662 116.2865,64.4462995 115.9895,64.2739662 C115.6925,64.1016329 115.457833,63.8596329 115.2855,63.5479662 C115.113167,63.2362995 115.027,62.8787995 115.027,62.4754662 C115.027,62.0721329 115.113167,61.7146329 115.2855,61.4029662 C115.457833,61.0912995 115.6925,60.8511329 115.9895,60.6824662 C116.2865,60.5137995 116.622,60.4294662 116.996,60.4294662 C117.37,60.4294662 117.7055,60.5137995 118.0025,60.6824662 C118.2995,60.8511329 118.532333,61.0912995 118.701,61.4029662 C118.869667,61.7146329 118.954,62.0721329 118.954,62.4754662 C118.954,62.8787995 118.869667,63.2362995 118.701,63.5479662 C118.532333,63.8596329 118.2995,64.1016329 118.0025,64.2739662 C117.7055,64.4462995 117.37,64.5324662 116.996,64.5324662 Z M124.363,65.3904662 L126.068,60.9684662 L127.751,65.3904662 L128.763,65.3904662 L130.941,59.5604662 L129.995,59.5604662 L128.257,64.2244662 L126.53,59.5604662 L125.639,59.5604662 L123.879,64.2024662 L122.185,59.5604662 L121.184,59.5604662 L123.351,65.3904662 L124.363,65.3904662 Z M133.864,65.3904662 L133.864,62.3874662 C133.864,61.7641329 134.029,61.2856329 134.359,60.9519662 C134.689,60.6182995 135.14,60.4514662 135.712,60.4514662 C136.218,60.4514662 136.606667,60.5944662 136.878,60.8804662 C137.149333,61.1664662 137.285,61.5917995 137.285,62.1564662 L137.285,62.1564662 L137.285,65.3904662 L138.341,65.3904662 L138.341,62.0354662 C138.341,61.2067995 138.122833,60.5779662 137.6865,60.1489662 C137.250167,59.7199662 136.661667,59.5054662 135.921,59.5054662 C135.459,59.5054662 135.0465,59.5861329 134.6835,59.7474662 C134.3205,59.9087995 134.032667,60.1397995 133.82,60.4404662 L133.82,60.4404662 L133.82,59.5604662 L132.808,59.5604662 L132.808,65.3904662 L133.864,65.3904662 Z" id="BestPizzaInTown" fill="#000000" fill-rule="nonzero"></path>
            <polygon id="Star" stroke="#000000" stroke-width="0.5" points="6 63.967 2.47328849 65.821102 3.14683045 61.894051 0.293660902 59.112898 4.23664424 58.539949 6 54.967 7.76335576 58.539949 11.7063391 59.112898 8.85316955 61.894051 9.52671151 65.821102"></polygon>
            <polygon id="Star-Copy" stroke="#000000" stroke-width="0.5" points="158 63.967 154.473288 65.821102 155.14683 61.894051 152.293661 59.112898 156.236644 58.539949 158 54.967 159.763356 58.539949 163.706339 59.112898 160.85317 61.894051 161.526712 65.821102"></polygon>
            <line x1="0.5" y1="11.467" x2="57.5" y2="11.467" id="Line" stroke="#000000" stroke-linecap="round" stroke-linejoin="round"></line>
            <line x1="106" y1="11.467" x2="163" y2="11.467" id="Line-Copy" stroke="#000000" stroke-linecap="round" stroke-linejoin="round"></line>
            <line x1="106" y1="42.467" x2="163" y2="42.467" id="Line-Copy-3" stroke="#000000" stroke-linecap="round" stroke-linejoin="round"></line>
            <line x1="0.5" y1="42.467" x2="57.5" y2="42.467" id="Line-Copy-2" stroke="#000000" stroke-linecap="round" stroke-linejoin="round"></line>
        </g>
    </g>
</svg>