<?xml version="1.0" encoding="UTF-8"?>
<svg width="157px" height="63px" viewBox="0 0 157 63" version="1.1" xmlns="http://www.w3.org/2000/svg" xmlns:xlink="http://www.w3.org/1999/xlink">
    <title>logo</title>
    <g id="Page-1" stroke="none" stroke-width="1" fill="none" fill-rule="evenodd">
        <g id="logo">
            <path d="M88.180493,43.0715634 C81.1643662,43.0743944 74.1472958,43.078169 67.1302254,43.0828873 C66.8697746,43.0828873 66.6583944,43.2942676 66.6593349,43.5547183 C66.6593349,43.815169 66.8707183,44.0265493 67.131169,44.0265493 C74.1472958,44.021831 81.1643662,44.0180563 88.180493,44.0152254 C88.4418873,44.0152254 88.6523239,43.8038451 88.6523239,43.5433944 C88.6523239,43.282 88.4409437,43.0715634 88.180493,43.0715634" id="Fill-172" fill="#121514"></path>
            <path d="M68.4353099,6.90760563 C74.2709155,6.96233803 80.1074648,7.00669014 85.9440141,7.04066197 C86.2044648,7.0425493 86.4167887,6.83211268 86.4186887,6.57166197 C86.4205634,6.31121127 86.2101268,6.09888732 85.9496761,6.097 C80.1140704,6.06302817 74.2784648,6.01867606 68.4438028,5.96488732 C68.1833521,5.96205634 67.9700845,6.1715493 67.9672409,6.432 C67.9653662,6.6924507 68.1748592,6.90571831 68.4353099,6.9085493" id="Fill-173" fill="#121514"></path>
            <path d="M2.90367,29.5551287 C2.98046541,29.5551287 3.0342222,29.5397696 3.06494036,29.5090514 C3.09565852,29.4783333 3.11101761,29.4245765 3.11101761,29.3477811 C3.11101761,29.2617702 3.09258671,29.1726875 3.05572491,29.0805331 L3.05572491,29.0805331 L2.4889748,29.0805331 C2.46440027,28.6535506 2.45211301,27.576879 2.45211301,25.8505182 L2.45237957,25.5901246 C2.45415665,24.7449944 2.46481916,24.1283463 2.48436708,23.7401804 L2.48436708,23.7401804 L2.90367,23.7401804 C2.98046541,23.7401804 3.0342222,23.7248213 3.06494036,23.6941031 C3.09565852,23.663385 3.11101761,23.6096282 3.11101761,23.5328328 C3.11101761,23.4468219 3.09258671,23.3577393 3.05572491,23.2655848 L3.05572491,23.2655848 L0.977641175,23.2655848 C0.903917584,23.2655848 0.850928752,23.2801759 0.818674681,23.3093582 C0.78642061,23.3385404 0.770293574,23.3853856 0.770293574,23.4498938 C0.770293574,23.5389764 0.79026038,23.6357386 0.830193992,23.7401804 L0.830193992,23.7401804 L1.3969441,23.7401804 C1.41844682,24.1671629 1.43073408,24.8521779 1.4338059,25.7952255 C1.4338059,27.5584481 1.42151863,28.6535506 1.3969441,29.0805331 L1.3969441,29.0805331 L0.977641175,29.0805331 C0.903917584,29.0805331 0.850928752,29.0951242 0.818674681,29.1243064 C0.78642061,29.1534887 0.770293574,29.2003339 0.770293574,29.264842 C0.770293574,29.3539247 0.79026038,29.4506869 0.830193992,29.5551287 L0.830193992,29.5551287 L2.90367,29.5551287 Z M9.49990405,29.5551287 C9.57669946,29.5551287 9.63045624,29.5397696 9.66117441,29.5090514 C9.69189257,29.4783333 9.70725165,29.4245765 9.70725165,29.3477811 C9.70725165,29.2617702 9.68882075,29.1726875 9.65195896,29.0805331 L9.65195896,29.0805331 L8.99305436,29.0805331 C8.96847983,28.6535506 8.95619256,27.576879 8.95619256,25.8505182 C8.95619256,24.8706088 8.96847983,24.2070965 8.99305436,23.8599812 L8.99305436,23.8599812 L9.14971699,23.8599812 C9.96989195,23.8599812 10.6364761,23.9690307 11.1494694,24.1871297 C11.2754139,23.9936052 11.3383861,23.7893295 11.3383861,23.5743023 C11.3383861,23.4575733 11.3115077,23.3769381 11.2577509,23.3323968 C11.2039941,23.2878554 11.1095358,23.2655848 10.9743759,23.2655848 L10.9743759,23.2655848 L8.09454809,23.2655848 C7.10235142,23.2655848 6.34514869,23.1964689 5.82293992,23.0582372 C5.73692906,23.260977 5.69392364,23.4483578 5.69392364,23.6203796 C5.69392364,23.7401804 5.72003407,23.8215835 5.77225495,23.864589 C5.82447583,23.9075944 5.91816623,23.9290971 6.05332614,23.9290971 C6.19462969,23.9290971 6.81052887,23.9060585 7.90102366,23.8599812 C7.92559819,24.2070965 7.93788545,24.8521779 7.93788545,25.7952255 L7.93743037,26.3582212 C7.93500326,27.7935558 7.92286768,28.7009931 7.90102366,29.0805331 L7.90102366,29.0805331 L7.38956624,29.0805331 C7.31584265,29.0805331 7.26285382,29.0951242 7.23059975,29.1243064 C7.19834568,29.1534887 7.18221864,29.2003339 7.18221864,29.264842 C7.18221864,29.3539247 7.20218545,29.4506869 7.24211906,29.5551287 L7.24211906,29.5551287 L9.49990405,29.5551287 Z M14.5433349,29.5551287 C14.6201304,29.5551287 14.6738871,29.5397696 14.7046053,29.5090514 C14.7353235,29.4783333 14.7506825,29.4245765 14.7506825,29.3477811 C14.7506825,29.2617702 14.7322517,29.1726875 14.6953899,29.0805331 L14.6953899,29.0805331 L14.2668715,29.0805331 C14.3098769,28.8009978 14.4388932,28.2757172 14.6539203,27.5046913 L14.6539203,27.5046913 L16.7320041,27.5046913 C16.9685339,28.2818608 17.1159811,28.8071414 17.1743456,29.0805331 L17.1743456,29.0805331 L16.9255285,29.0805331 C16.8518049,29.0805331 16.7988161,29.0951242 16.766562,29.1243064 C16.7343079,29.1534887 16.7181809,29.2003339 16.7181809,29.264842 C16.7181809,29.3539247 16.7381477,29.4506869 16.7780813,29.5551287 L16.7780813,29.5551287 L18.690287,29.5551287 C18.7670824,29.5551287 18.8208392,29.5397696 18.8515573,29.5090514 C18.8822755,29.4783333 18.8976346,29.4245765 18.8976346,29.3477811 C18.8976346,29.2617702 18.8792037,29.1726875 18.8423419,29.0805331 L18.8423419,29.0805331 L18.4368621,29.0805331 C18.2341222,28.5921143 17.8455375,27.5023874 17.2711078,25.8113525 C16.6966782,24.1203177 16.3864247,23.261745 16.3403475,23.2356346 C16.2942702,23.2095241 16.097674,23.1964689 15.7505588,23.1964689 C15.4587362,23.1964689 15.2575322,23.3070543 15.1469469,23.5282251 C15.0363615,23.7493958 14.7460748,24.5903056 14.2760869,26.0509542 C13.806099,27.5116029 13.4697351,28.5214625 13.2669953,29.0805331 L13.2669953,29.0805331 L12.9997472,29.0805331 C12.9260237,29.0805331 12.8730348,29.0951242 12.8407808,29.1243064 C12.8085267,29.1534887 12.7923996,29.2003339 12.7923996,29.264842 C12.7923996,29.3539247 12.8108305,29.4506869 12.8476923,29.5551287 L12.8476923,29.5551287 L14.5433349,29.5551287 Z M16.5523028,26.9102948 L14.8151907,26.9102948 C15.3312558,25.1317132 15.6100232,24.2424224 15.6514927,24.2424224 C15.6929622,24.2424224 15.9932322,25.1317132 16.5523028,26.9102948 L16.5523028,26.9102948 Z M21.5680874,29.5597364 L25.2450515,29.5551287 C25.5184431,29.5551287 25.6996803,29.5236426 25.788763,29.4606703 C25.8778457,29.3976981 25.922387,29.298632 25.922387,29.1634721 C25.922387,28.9822349 25.8732379,28.8071414 25.7749398,28.6381915 C25.2158692,28.8532186 24.4694179,28.9607322 23.5355857,28.9607322 L23.5355857,28.9607322 L23.1439291,28.9607322 C23.1248156,28.6521853 23.114197,27.7987513 23.1120733,26.4004302 L23.1119416,25.5901246 C23.1137187,24.7449944 23.1243812,24.1283463 23.1439291,23.7401804 L23.1439291,23.7401804 L23.5586243,23.7401804 C23.6384916,23.7401804 23.6937843,23.7248213 23.7245024,23.6941031 C23.7552206,23.663385 23.7705797,23.6096282 23.7705797,23.5328328 C23.7705797,23.4468219 23.7506129,23.3577393 23.7106792,23.2655848 L23.7106792,23.2655848 L21.7155346,23.2655848 C21.641811,23.2655848 21.5888221,23.2801759 21.5565681,23.3093582 C21.524314,23.3385404 21.5081869,23.3853856 21.5081869,23.4498938 C21.5081869,23.5389764 21.5281538,23.6357386 21.5680874,23.7401804 L21.5680874,23.7401804 L22.0518984,23.7401804 C22.076473,24.1671629 22.0887602,24.8521779 22.0887602,25.7952255 L22.0883138,26.3898611 C22.0860817,27.8072546 22.0754791,28.7056811 22.0565062,29.0851408 L22.0565062,29.0851408 L21.7155346,29.0851408 C21.641811,29.0851408 21.5888221,29.0997319 21.5565681,29.1289142 C21.524314,29.1580964 21.5081869,29.2034057 21.5081869,29.264842 C21.5081869,29.3569965 21.5281538,29.4552946 21.5680874,29.5597364 L21.5680874,29.5597364 Z M30.680139,29.5551287 C30.7569344,29.5551287 30.8106912,29.5397696 30.8414093,29.5090514 C30.8721275,29.4783333 30.8874866,29.4245765 30.8874866,29.3477811 C30.8874866,29.2617702 30.8690557,29.1726875 30.8321939,29.0805331 L30.8321939,29.0805331 L30.2654438,29.0805331 C30.2437604,28.7037838 30.2316432,27.8212212 30.2290922,26.4328453 L30.2288485,25.5901246 C30.2306256,24.7449944 30.2412881,24.1283463 30.260836,23.7401804 L30.260836,23.7401804 L30.680139,23.7401804 C30.7569344,23.7401804 30.8106912,23.7248213 30.8414093,23.6941031 C30.8721275,23.663385 30.8874866,23.6096282 30.8874866,23.5328328 C30.8874866,23.4468219 30.8690557,23.3577393 30.8321939,23.2655848 L30.8321939,23.2655848 L28.7541101,23.2655848 C28.6803866,23.2655848 28.6273977,23.2801759 28.5951437,23.3093582 C28.5628896,23.3385404 28.5467625,23.3853856 28.5467625,23.4498938 C28.5467625,23.5389764 28.5667294,23.6357386 28.606663,23.7401804 L28.606663,23.7401804 L29.1734131,23.7401804 C29.1949158,24.1671629 29.2072031,24.8521779 29.2102749,25.7952255 C29.2102749,27.5584481 29.1979876,28.6535506 29.1734131,29.0805331 L29.1734131,29.0805331 L28.7541101,29.0805331 C28.6803866,29.0805331 28.6273977,29.0951242 28.5951437,29.1243064 C28.5628896,29.1534887 28.5467625,29.2003339 28.5467625,29.264842 C28.5467625,29.3539247 28.5667294,29.4506869 28.606663,29.5551287 L28.606663,29.5551287 L30.680139,29.5551287 Z M35.2443665,29.5551287 C35.3211619,29.5551287 35.3749187,29.5397696 35.4056369,29.5090514 C35.436355,29.4783333 35.4517141,29.4245765 35.4517141,29.3477811 C35.4517141,29.2617702 35.4332832,29.1726875 35.3964214,29.0805331 L35.3964214,29.0805331 L34.9679031,29.0805331 C35.0109085,28.8009978 35.1399248,28.2757172 35.3549519,27.5046913 L35.3549519,27.5046913 L37.4330357,27.5046913 C37.6695655,28.2818608 37.8170127,28.8071414 37.8753772,29.0805331 L37.8753772,29.0805331 L37.6265601,29.0805331 C37.5528365,29.0805331 37.4998477,29.0951242 37.4675936,29.1243064 C37.4353395,29.1534887 37.4192125,29.2003339 37.4192125,29.264842 C37.4192125,29.3539247 37.4391793,29.4506869 37.4791129,29.5551287 L37.4791129,29.5551287 L39.3913186,29.5551287 C39.468114,29.5551287 39.5218707,29.5397696 39.5525889,29.5090514 C39.5833071,29.4783333 39.5986662,29.4245765 39.5986662,29.3477811 C39.5986662,29.2617702 39.5802353,29.1726875 39.5433735,29.0805331 L39.5433735,29.0805331 L39.1378937,29.0805331 C38.9351538,28.5921143 38.5465691,27.5023874 37.9721394,25.8113525 C37.3977098,24.1203177 37.0874563,23.261745 37.0413791,23.2356346 C36.9953018,23.2095241 36.7987056,23.1964689 36.4515903,23.1964689 C36.1597678,23.1964689 35.9585638,23.3070543 35.8479784,23.5282251 C35.737393,23.7493958 35.4471064,24.5903056 34.9771185,26.0509542 C34.5071306,27.5116029 34.1707667,28.5214625 33.9680268,29.0805331 L33.9680268,29.0805331 L33.7007788,29.0805331 C33.6270552,29.0805331 33.5740664,29.0951242 33.5418123,29.1243064 C33.5095583,29.1534887 33.4934312,29.2003339 33.4934312,29.264842 C33.4934312,29.3539247 33.5118621,29.4506869 33.5487239,29.5551287 L33.5487239,29.5551287 L35.2443665,29.5551287 Z M37.2533344,26.9102948 L35.5162223,26.9102948 C36.0322874,25.1317132 36.3110547,24.2424224 36.3525243,24.2424224 C36.3939938,24.2424224 36.6942638,25.1317132 37.2533344,26.9102948 L37.2533344,26.9102948 Z M47.1625223,29.6012059 C47.3591186,29.6012059 47.4842951,29.5766314 47.5380519,29.5274823 C47.5918087,29.4783333 47.6186871,29.3631402 47.6186871,29.181903 L47.6186871,29.181903 L47.6189536,25.5901246 C47.6207307,24.7449944 47.6313932,24.1283463 47.6509411,23.7401804 L47.6509411,23.7401804 L48.0241668,23.7401804 C48.1009622,23.7401804 48.154719,23.7248213 48.1854372,23.6941031 C48.2161553,23.663385 48.2315144,23.6096282 48.2315144,23.5328328 C48.2315144,23.4468219 48.2130835,23.3577393 48.1762217,23.2655848 L48.1762217,23.2655848 L46.4437173,23.2655848 C46.3699937,23.2655848 46.3170049,23.2801759 46.2847508,23.3093582 C46.2524968,23.3385404 46.2363697,23.3853856 46.2363697,23.4498938 C46.2363697,23.5389764 46.2563365,23.6357386 46.2962701,23.7401804 L46.2962701,23.7401804 L46.7708658,23.7401804 C46.7923685,24.1671629 46.8031198,24.8521779 46.8031198,25.7952255 L46.8031198,25.7952255 L46.8031198,28.3432971 C46.2870547,27.3234541 45.8101552,26.4456826 45.3724214,25.7099826 C44.9346876,24.9742826 44.4685394,24.1594833 43.973977,23.2655848 L43.973977,23.2655848 L42.5087206,23.2655848 C42.434997,23.2655848 42.3820082,23.2801759 42.3497541,23.3093582 C42.3175001,23.3385404 42.301373,23.3853856 42.301373,23.4498938 C42.301373,23.5389764 42.3213398,23.6357386 42.3612734,23.7401804 L42.3612734,23.7401804 L42.7990073,23.7401804 C42.8235818,24.1671629 42.8358691,24.8521779 42.8358691,25.7952255 C42.8358691,27.5584481 42.8251177,28.6535506 42.803615,29.0805331 L42.803615,29.0805331 L42.4165661,29.0805331 C42.3428425,29.0805331 42.2898537,29.0951242 42.2575996,29.1243064 C42.2253456,29.1534887 42.2092185,29.2003339 42.2092185,29.264842 C42.2092185,29.3539247 42.2291853,29.4506869 42.2691189,29.5551287 L42.2691189,29.5551287 L43.9831925,29.5551287 C44.0630597,29.5551287 44.1183524,29.5397696 44.1490705,29.5090514 C44.1797887,29.4783333 44.1951478,29.4245765 44.1951478,29.3477811 C44.1951478,29.2617702 44.175181,29.1726875 44.1352474,29.0805331 L44.1352474,29.0805331 L43.6836904,29.0805331 C43.6666674,28.7425053 43.6563827,27.7624172 43.6528362,26.1402689 L43.6519403,25.6066688 C43.6518283,25.5141783 43.6517349,25.4199093 43.6516603,25.3238617 L43.6514363,24.7262334 C44.1183524,25.6938556 44.6966218,26.7336654 45.3862446,27.8456629 C46.0758673,28.9576604 46.449093,29.5282503 46.5059216,29.5574325 C46.5627502,29.5866148 46.7816171,29.6012059 47.1625223,29.6012059 Z" id="ITALIAN" fill="#262928" fill-rule="nonzero"></path>
            <path d="M114.086152,29.6564986 C114.434189,29.6564986 114.652134,29.6134164 114.739988,29.5272519 C114.827842,29.4410875 114.83629,29.2763613 114.765331,29.0330735 C114.53218,29.0398315 114.352248,28.9883018 114.225536,28.8784843 C114.098823,28.7686669 113.924805,28.4704703 113.703481,27.9838946 C113.482156,27.4973189 113.271814,27.1230949 113.072453,26.8612226 C112.873092,26.5993502 112.612909,26.4194186 112.291904,26.3214276 C113.413731,25.9801488 113.974645,25.3415182 113.974645,24.4055358 C113.974645,23.7939372 113.7567,23.3462199 113.320809,23.0623841 C112.884918,22.7785483 112.151676,22.6366304 111.121081,22.6366304 L111.121081,22.6366304 L108.936559,22.6366304 C108.855463,22.6366304 108.797176,22.6526806 108.761696,22.6847811 C108.726217,22.7168816 108.708477,22.7684113 108.708477,22.8393703 C108.708477,22.9373612 108.728751,23.0437996 108.769299,23.1586856 L108.769299,23.1586856 L109.357244,23.1586856 C109.384276,23.6283663 109.397792,24.3818828 109.397792,25.4192352 C109.397792,27.35878 109.384276,28.5633928 109.357244,29.0330735 L109.357244,29.0330735 L108.896011,29.0330735 C108.814915,29.0330735 108.756628,29.0491237 108.721148,29.0812242 C108.685669,29.1133247 108.667929,29.1648544 108.667929,29.2358134 C108.667929,29.3338043 108.689892,29.4402427 108.733819,29.5551287 L108.733819,29.5551287 L111.116013,29.5551287 C111.200488,29.5551287 111.25962,29.5382337 111.29341,29.5044437 C111.3272,29.4706537 111.344095,29.4115213 111.344095,29.3270463 C111.344095,29.2324344 111.323821,29.1344434 111.283273,29.0330735 L111.283273,29.0330735 L110.558478,29.0330735 C110.538204,28.6377307 110.524688,27.8571822 110.51793,26.6914279 C110.724049,26.6576379 110.931857,26.6407429 111.141355,26.6407429 C111.543456,26.6407429 111.850945,26.7708344 112.063822,27.0310172 C112.276699,27.2912001 112.478594,27.7414515 112.669507,28.3817716 C112.860421,29.0220917 113.043731,29.3946263 113.219439,29.4993752 C113.395147,29.6041241 113.684051,29.6564986 114.086152,29.6564986 Z M110.943684,26.0021123 L110.51793,26.0021123 L110.51817,25.2382988 C110.52009,24.2992173 110.533526,23.6955564 110.558478,23.4273159 C110.717291,23.3935259 110.913273,23.3766309 111.146424,23.3766309 C111.656653,23.3766309 112.048616,23.4889826 112.322315,23.713686 C112.596014,23.9383893 112.732863,24.2906499 112.732863,24.7704676 C112.732863,25.1793263 112.581653,25.4868151 112.279233,25.692934 C111.976813,25.8990529 111.53163,26.0021123 110.943684,26.0021123 L110.943684,26.0021123 Z M122.786734,29.5601972 L127.186189,29.5551287 C127.48692,29.5551287 127.686281,29.5204939 127.784272,29.4512245 C127.882263,29.381955 127.931258,29.2729823 127.931258,29.1243064 C127.931258,28.9249456 127.877194,28.7323427 127.769066,28.5464978 C127.154089,28.7830276 126.30765,28.9012926 125.229749,28.9012926 L125.229749,28.9012926 L124.52016,28.9012926 C124.499886,28.5735298 124.488059,27.6797848 124.48468,26.2200577 L124.48468,26.2200577 L126.958107,26.2200577 C127.056098,26.2200577 127.121988,26.2040075 127.155778,26.171907 C127.189568,26.1398065 127.206463,26.0764503 127.206463,25.9818383 C127.206463,25.8365414 127.1845,25.6980025 127.140573,25.5662216 L127.140573,25.5662216 L124.489749,25.5662216 L124.489749,25.5662216 L124.489569,24.8404068 C124.491768,24.1008262 124.501965,23.5841794 124.52016,23.2904665 L124.52016,23.2904665 L124.961119,23.2904665 C126.079567,23.2904665 126.958107,23.4205579 127.596737,23.6807407 C127.725139,23.4611059 127.78934,23.248229 127.78934,23.0421101 C127.78934,22.8799182 127.753861,22.7717903 127.682902,22.7177263 C127.611943,22.6636624 127.480162,22.6366304 127.287559,22.6366304 L127.287559,22.6366304 L122.948926,22.6366304 C122.86783,22.6366304 122.809542,22.6526806 122.774063,22.6847811 C122.738583,22.7168816 122.720843,22.7684113 122.720843,22.8393703 C122.720843,22.9373612 122.742807,23.0437996 122.786734,23.1586856 L122.786734,23.1586856 L123.323995,23.1586856 C123.347648,23.6283663 123.359474,24.3818828 123.359474,25.4192352 C123.359474,27.35878 123.347648,28.5650823 123.323995,29.038142 L123.323995,29.038142 L122.948926,29.038142 C122.86783,29.038142 122.809542,29.0541922 122.774063,29.0862927 C122.738583,29.1183932 122.720843,29.1682334 122.720843,29.2358134 C122.720843,29.3371833 122.742807,29.4453112 122.786734,29.5601972 L122.786734,29.5601972 Z M138.076362,29.6564986 C139.032618,29.6564986 139.743052,29.4824802 140.207665,29.1344434 C140.672277,28.7864066 140.904583,28.272799 140.904583,27.5936204 C140.884309,26.9854007 140.69424,26.5452863 140.334377,26.2732769 C139.974514,26.0012676 139.444856,25.760514 138.745403,25.5510161 C138.154079,25.3651712 137.752823,25.1793263 137.541635,24.9934814 C137.330448,24.8076366 137.224854,24.5575907 137.224854,24.2433439 C137.224854,23.9426131 137.313553,23.706928 137.49095,23.5362886 C137.668348,23.3656492 137.971613,23.2803295 138.400745,23.2803295 C139.008965,23.2803295 139.66787,23.4425214 140.377459,23.7669052 C140.559925,23.5911973 140.651158,23.3901469 140.651158,23.1637541 C140.651158,22.9170872 140.50924,22.7506716 140.225404,22.6645071 C139.941569,22.5783427 139.433029,22.5352604 138.699787,22.5352604 C137.868553,22.5352604 137.230767,22.7118131 136.786429,23.0649184 C136.342091,23.4180237 136.119922,23.8936176 136.119922,24.4917003 C136.119922,24.971518 136.255927,25.359258 136.527936,25.6549203 C136.799945,25.9505826 137.256955,26.1964047 137.898964,26.3923866 C138.561248,26.6018845 139.0436,26.8080033 139.34602,27.0107432 C139.64844,27.2134831 139.799651,27.5175929 139.799651,27.9230727 C139.799651,28.2609725 139.694902,28.5110183 139.485404,28.6732102 C139.275906,28.8354021 138.922801,28.9164981 138.426088,28.9164981 C137.702982,28.9164981 137.006909,28.7340322 136.337867,28.3691004 C136.141885,28.5481873 136.043894,28.7543062 136.043894,28.987457 C136.043894,29.2442609 136.216223,29.4199688 136.560881,29.5145807 C136.905539,29.6091926 137.410699,29.6564986 138.076362,29.6564986 Z M152.970647,29.5551287 C153.055122,29.5551287 153.114254,29.5382337 153.148044,29.5044437 C153.181834,29.4706537 153.198729,29.4115213 153.198729,29.3270463 C153.198729,29.2324344 153.178455,29.1344434 153.137907,29.0330735 L153.137907,29.0330735 L152.413112,29.0330735 C152.389084,28.6155795 152.375735,27.6334175 152.373065,26.0865873 L152.372846,25.2178328 C152.374911,24.2829298 152.388333,23.6404744 152.413112,23.2904665 L152.413112,23.2904665 L152.585441,23.2904665 C153.487633,23.2904665 154.220876,23.4104209 154.785169,23.6503298 C154.923708,23.4374529 154.992977,23.2127495 154.992977,22.9762197 C154.992977,22.8478178 154.963411,22.7591191 154.904278,22.7101236 C154.845146,22.6611281 154.741242,22.6366304 154.592566,22.6366304 L154.592566,22.6366304 L151.424755,22.6366304 C150.333339,22.6366304 149.500416,22.5606029 148.925986,22.408548 C148.831374,22.6315619 148.784068,22.8376808 148.784068,23.0269046 C148.784068,23.1586856 148.81279,23.248229 148.870233,23.295535 C148.927676,23.342841 149.030735,23.3664939 149.179411,23.3664939 C149.334845,23.3664939 150.012334,23.3411515 151.211878,23.2904665 C151.23891,23.6722933 151.252426,24.3818828 151.252426,25.4192352 L151.252314,25.7193716 C151.250966,27.4835455 151.237488,28.5881128 151.211878,29.0330735 L151.211878,29.0330735 L150.649275,29.0330735 C150.568179,29.0330735 150.509891,29.0491237 150.474412,29.0812242 C150.438933,29.1133247 150.421193,29.1648544 150.421193,29.2358134 C150.421193,29.3338043 150.443156,29.4402427 150.487083,29.5551287 L150.487083,29.5551287 L152.970647,29.5551287 Z" id="REST" fill="#262928" fill-rule="nonzero"></path>
            <path d="M78.6768732,0.471830986 C68.2928169,0.471830986 59.423338,6.92930986 55.8468592,16.0450845 L101.507831,16.0450845 C97.9313521,6.92930986 89.0618732,0.471830986 78.6768732,0.471830986" id="Fill-174" fill="#169045"></path>
            <path d="M78.6768732,0.471830986 L78.6768732,0 C68.0927606,0.000943661972 59.0524789,6.58109859 55.4071127,15.873338 L55.1542113,16.5169155 L102.200479,16.5169155 L101.947577,15.873338 C98.3022113,6.58109859 89.2619296,0.000943661972 78.6768732,0 L78.6768732,0.943661972 C88.8618169,0.943661972 97.560493,7.27752113 101.069028,16.2177746 L101.507831,16.0450845 L101.507831,15.5732535 L55.8468592,15.5732535 L55.8468592,16.0450845 L56.285662,16.2177746 C59.7941972,7.27752113 68.4928732,0.943661972 78.6768732,0.943661972 L78.6768732,0.471830986" id="Fill-175" fill="#262928"></path>
            <path d="M78.6768732,49.518662 C89.0618732,49.518662 97.9313521,43.0611831 101.507831,33.9454085 L55.8468592,33.9454085 C59.423338,43.0611831 68.2928169,49.518662 78.6768732,49.518662" id="Fill-176" fill="#D5232F"></path>
            <path d="M78.6768732,49.518662 L78.6768732,49.990493 C89.2619296,49.9895493 98.3022113,43.4093944 101.947577,34.1171549 L102.200479,33.4735775 L55.1542113,33.4735775 L55.4071127,34.1171549 C59.0524789,43.4093944 68.0927606,49.9895493 78.6768732,49.990493 L78.6768732,49.046831 C68.4928732,49.046831 59.7941972,42.7129718 56.285662,33.7727183 L55.8468592,33.9454085 L55.8468592,34.4172394 L101.507831,34.4172394 L101.507831,33.9454085 L101.069028,33.7727183 C97.560493,42.7129718 88.8618169,49.046831 78.6768732,49.046831 L78.6768732,49.518662" id="Fill-177" fill="#262928"></path>
            <path d="M101.507831,16.0450845 L55.8468592,16.0450845 C54.7578732,18.8194507 54.1539296,21.836338 54.1539296,24.9957183 C54.1539296,28.1550986 54.7578732,31.1719859 55.8468592,33.9454085 L101.507831,33.9454085 C102.596817,31.1719859 103.200761,28.1550986 103.200761,24.9957183 C103.200761,21.836338 102.596817,18.8194507 101.507831,16.0450845" id="Fill-178" fill="#FFFFFE"></path>
            <path d="M101.507831,16.0450845 L101.507831,15.5732535 L55.5250704,15.5732535 L55.4071127,15.8723944 C54.2983099,18.6996056 53.6820986,21.7759437 53.6820986,24.9957183 C53.6820986,28.215493 54.2983099,31.291831 55.4071127,34.1180986 L55.5250704,34.4172394 L101.82962,34.4172394 L101.947577,34.1180986 C103.05638,31.291831 103.672592,28.215493 103.672592,24.9957183 C103.672592,21.7759437 103.05638,18.6996056 101.947577,15.8723944 L101.82962,15.5732535 L101.507831,15.5732535 L101.507831,16.0450845 L101.069028,16.2177746 C102.13631,18.9383521 102.72893,21.8967324 102.72893,24.9957183 C102.72893,28.0947042 102.13631,31.0530845 101.069028,33.7727183 L101.507831,33.9454085 L101.507831,33.4735775 L55.8468592,33.4735775 L55.8468592,33.9454085 L56.285662,33.7727183 C55.2183803,31.0530845 54.6257606,28.0947042 54.6257606,24.9957183 C54.6257606,21.8967324 55.2183803,18.9383521 56.285662,16.2177746 L55.8468592,16.0450845 L55.8468592,16.5169155 L101.507831,16.5169155 L101.507831,16.0450845 L101.069028,16.2177746 L101.507831,16.0450845" id="Fill-179" fill="#262928"></path>
            <path d="M22.3730366,61.1177446 L24.6133122,61.1126761 C25.8162355,61.1126761 26.657606,60.9327444 27.1374237,60.5728811 C27.6172414,60.2130179 27.8571502,59.7357344 27.8571502,59.1410308 C27.8571502,58.2388383 27.2641361,57.6981986 26.0781078,57.5191117 C27.0445012,57.160938 27.5276979,56.5780608 27.5276979,55.7704803 C27.5276979,55.2433566 27.3046841,54.8488586 26.8586563,54.5869863 C26.4126286,54.3251139 25.723313,54.1941778 24.7907096,54.1941778 L24.7907096,54.1941778 L22.5352285,54.1941778 C22.4541325,54.1941778 22.3958448,54.210228 22.3603653,54.2423285 C22.3248858,54.274429 22.3071461,54.3259587 22.3071461,54.3969176 C22.3071461,54.4949086 22.3291096,54.601347 22.3730366,54.7162329 L22.3730366,54.7162329 L22.9102972,54.7162329 C22.9307965,55.1232896 22.9424127,55.8831286 22.945146,56.99575 L22.9452223,58.0966036 C22.9426353,59.3487335 22.9309936,60.1817621 22.9102972,60.5956894 L22.9102972,60.5956894 L22.5352285,60.5956894 C22.4541325,60.5956894 22.3958448,60.6117396 22.3603653,60.6438401 C22.3248858,60.6759406 22.3071461,60.7257808 22.3071461,60.7933608 C22.3071461,60.8947307 22.3291096,61.0028586 22.3730366,61.1177446 L22.3730366,61.1177446 Z M24.7248191,57.2200704 C24.4849103,57.2200704 24.2669649,57.2065544 24.070983,57.1795224 C24.074362,56.1489281 24.0828095,55.417375 24.0963255,54.9848633 C24.3159604,54.9510733 24.5474217,54.9341783 24.7907096,54.9341783 C25.3043173,54.9341783 25.6819203,55.026256 25.9235187,55.2104114 C26.165117,55.3945668 26.2859162,55.6826264 26.2859162,56.0745901 C26.2859162,56.4462799 26.1642723,56.7301157 25.9209844,56.9260976 C25.6776966,57.1220795 25.2789748,57.2200704 24.7248191,57.2200704 Z M25.1404359,60.3726755 C24.5997962,60.3726755 24.2863941,60.3118535 24.2002297,60.1902096 C24.1140653,60.0685657 24.070983,59.7103919 24.070983,59.1156883 L24.070983,59.1156883 L24.070983,57.909386 C24.3075129,57.875596 24.5676957,57.858701 24.8515316,57.858701 C25.4462352,57.858701 25.8888839,57.9761212 26.1794777,58.2109616 C26.4700716,58.4458019 26.6153685,58.782857 26.6153685,59.2221267 C26.6153685,59.6208485 26.5013273,59.912287 26.2732449,60.0964424 C26.0451626,60.2805978 25.6675596,60.3726755 25.1404359,60.3726755 Z M32.5874402,61.1887035 C33.0571209,61.1887035 33.4786509,61.143087 33.8520301,61.0518541 C34.2254094,60.9606211 34.4120991,60.8018082 34.4120991,60.5754154 C34.4120991,60.4132235 34.3394506,60.2594791 34.1941537,60.1141822 C33.758263,60.377744 33.2868927,60.5095249 32.7800431,60.5095249 C32.2360244,60.5095249 31.8567319,60.3524015 31.6421655,60.0381547 C31.4275991,59.7239079 31.3169369,59.2913962 31.3101789,58.7406195 L31.3101789,58.7406195 L33.5504546,58.7406195 C33.9153864,58.7406195 34.1519162,58.681487 34.2600442,58.5632221 C34.3681721,58.4449572 34.4222361,58.2354593 34.4222361,57.9347285 C34.4222361,57.2521709 34.2701811,56.7622162 33.9660713,56.4648644 C33.6619615,56.1675126 33.1956598,56.0188367 32.5671662,56.0188367 C31.8102706,56.0188367 31.2197907,56.2663483 30.7957265,56.7613715 C30.3716623,57.2563947 30.1596301,57.9313495 30.1596301,58.786236 C30.1596301,59.6546384 30.3480093,60.2721503 30.7247676,60.6387716 C31.1015258,61.0053929 31.7224167,61.1887035 32.5874402,61.1887035 Z M31.8373026,58.1932218 L31.3152474,58.1932218 C31.3321424,57.6796141 31.4284439,57.3020111 31.6041518,57.0604128 C31.7798597,56.8188144 32.0366635,56.6980152 32.3745633,56.6980152 C32.6989471,56.6980152 32.945614,56.7926272 33.1145638,56.9818511 C33.2835137,57.171075 33.3679887,57.4329473 33.3679887,57.7674681 C33.3679887,57.906007 33.3519385,58.0006189 33.319838,58.0513039 C33.2877375,58.1019889 33.1711621,58.1383131 32.9701117,58.1602766 C32.7690613,58.1822401 32.3914583,58.1932218 31.8373026,58.1932218 L31.8373026,58.1932218 Z M38.4074569,61.214046 C39.0933935,61.214046 39.6222067,61.0856441 39.9938965,60.8288402 C40.3655863,60.5720364 40.5514311,60.2020361 40.5514311,59.7188394 C40.5514311,59.3370126 40.4297872,59.0371266 40.1864994,58.8191812 C39.9432115,58.6012358 39.5343528,58.3908932 38.9599231,58.1881533 C38.5037584,58.0192034 38.2021828,57.872217 38.0551964,57.7471941 C37.90821,57.6221712 37.8347168,57.4633583 37.8347168,57.2707554 C37.8347168,57.0849105 37.8997625,56.9429926 38.0298539,56.8450017 C38.1599453,56.7470107 38.3550825,56.6980152 38.6152653,56.6980152 C39.0004711,56.6980152 39.5242158,56.8517596 40.1864994,57.1592485 C40.3554493,56.9632666 40.4399242,56.7655952 40.4399242,56.5662343 C40.4399242,56.3736314 40.308988,56.2342478 40.0471157,56.1480833 C39.7852434,56.0619189 39.4312933,56.0188367 38.9852656,56.0188367 C38.268918,56.0188367 37.7265889,56.1506176 37.3582781,56.4141794 C36.9899673,56.6777413 36.8058119,57.0240885 36.8058119,57.4532213 C36.8058119,57.7708471 36.8987344,58.0327194 37.0845793,58.2388383 C37.2704241,58.4449572 37.6066344,58.6409391 38.0932101,58.8267839 C38.5865438,59.0193868 38.9489414,59.1858025 39.1804027,59.3260309 C39.4118641,59.4662593 39.5275948,59.6563279 39.5275948,59.8962368 C39.5275948,60.1192507 39.4515673,60.2814426 39.2995124,60.3828125 C39.1474575,60.4841824 38.9159961,60.5348674 38.6051283,60.5348674 C38.1084156,60.5348674 37.571155,60.3997075 36.9933463,60.1293877 C36.8615654,60.2949586 36.7956749,60.4639085 36.7956749,60.6362373 C36.7956749,60.8727672 36.9333691,61.0282011 37.2087574,61.1025391 C37.4841458,61.176877 37.8837123,61.214046 38.4074569,61.214046 Z M44.8052824,61.163361 C45.2310361,61.163361 45.5427487,61.13295 45.7404201,61.0721281 C45.9380914,61.0113061 46.0369271,60.8913517 46.0369271,60.7122648 C46.0369271,60.5804839 45.9997582,60.45884 45.9254202,60.347333 C45.6179314,60.4960089 45.3585933,60.5652784 45.1474059,60.5551414 C44.9362185,60.5450044 44.7782504,60.4495477 44.6735015,60.2687713 C44.5687525,60.0879949 44.5163781,59.7120814 44.5163781,59.1410308 L44.5163781,59.1410308 L44.5163781,56.7436317 L45.9659682,56.7436317 C46.0774751,56.7436317 46.1518131,56.7275815 46.188982,56.695481 C46.226151,56.6633805 46.2447355,56.5983348 46.2447355,56.5003439 C46.2447355,56.3753209 46.2244615,56.257056 46.1839135,56.1455491 L46.1839135,56.1455491 L44.5163781,56.1455491 L44.5163781,55.9377407 C44.5163781,55.447786 44.4927251,55.1614159 44.4454191,55.0786305 C44.3981131,54.995845 44.3246199,54.9240413 44.2249395,54.8632194 C44.125259,54.8023974 44.0044599,54.7500229 43.862542,54.706096 L43.862542,54.706096 L43.4519937,56.1455491 L43.1073359,56.1455491 C43.019482,56.1455491 42.9569705,56.1649783 42.9198015,56.2038368 C42.8826325,56.2426953 42.8640481,56.304362 42.8640481,56.3888369 C42.8640481,56.5037229 42.884322,56.6219878 42.92487,56.7436317 L42.92487,56.7436317 L43.4215827,56.7436317 C43.4587517,57.3518513 43.4773362,57.980345 43.4773362,58.6291126 L43.4773362,58.6291126 L43.4773362,59.8202093 C43.4773362,60.337196 43.5829299,60.6903013 43.7941172,60.8795252 C44.0053046,61.0687491 44.3423597,61.163361 44.8052824,61.163361 Z M55.0058628,61.1126761 C55.0903378,61.1126761 55.1494702,61.0957811 55.1832602,61.0619911 C55.2170502,61.0282011 55.2339452,60.9690686 55.2339452,60.8845937 C55.2339452,60.7899818 55.2136712,60.6919908 55.1731232,60.5906209 L55.1731232,60.5906209 L54.3976432,60.5906209 C54.3773692,60.2392051 54.3638532,59.5431315 54.3570952,58.5024001 L54.3570952,58.5024001 L54.6155886,58.5024001 C55.8354068,58.5024001 56.7071883,58.2996603 57.230933,57.8941805 C57.7546776,57.4887008 58.01655,56.9193396 58.01655,56.1860971 C58.01655,55.4798865 57.7977599,54.9713473 57.3601796,54.6604795 C56.9225994,54.3496117 56.0702472,54.1941778 54.8031229,54.1941778 L54.8031229,54.1941778 L52.7757242,54.1941778 C52.6946282,54.1941778 52.6363405,54.210228 52.600861,54.2423285 C52.5653815,54.274429 52.5476418,54.3259587 52.5476418,54.3969176 C52.5476418,54.4949086 52.5679158,54.601347 52.6084638,54.7162329 L52.6084638,54.7162329 L53.1964094,54.7162329 C53.2234414,55.1859137 53.2369574,55.9394302 53.2369574,56.9767826 C53.2369574,58.9163274 53.2234414,60.1209402 53.1964094,60.5906209 L53.1964094,60.5906209 L52.7351762,60.5906209 C52.6540802,60.5906209 52.5957925,60.6066711 52.5603131,60.6387716 C52.5248336,60.6708721 52.5070938,60.7224018 52.5070938,60.7933608 C52.5070938,60.8913517 52.5290573,60.9977901 52.5729843,61.1126761 L52.5729843,61.1126761 L55.0058628,61.1126761 Z M54.7676435,57.8637695 L54.3570952,57.8637695 L54.3573351,56.7958462 C54.3592546,55.8567647 54.3726906,55.2531037 54.3976432,54.9848633 C54.5699721,54.9510733 54.762575,54.9341783 54.9754518,54.9341783 C55.6140824,54.9341783 56.0736262,55.0676487 56.354083,55.3345896 C56.6345398,55.6015304 56.7747682,55.9782887 56.7747682,56.4648644 C56.7747682,56.9717141 56.6260923,57.3315774 56.3287405,57.5444542 C56.0313887,57.7573311 55.511023,57.8637695 54.7676435,57.8637695 L54.7676435,57.8637695 Z M61.0945099,55.2281511 C61.3614508,55.2281511 61.5574326,55.1715529 61.6824556,55.0583565 C61.8074785,54.9451601 61.86999,54.7973289 61.86999,54.614863 C61.86999,54.4526711 61.819305,54.3234244 61.7179351,54.227123 C61.6165651,54.1308216 61.4476152,54.0826708 61.2110854,54.0826708 C60.9711765,54.0826708 60.7853316,54.1384243 60.6535507,54.2499312 C60.5217698,54.3614382 60.4541898,54.5101141 60.4508108,54.695959 C60.4508108,54.8682879 60.5031853,55.0000688 60.6079342,55.0913017 C60.7126832,55.1825347 60.8748751,55.2281511 61.0945099,55.2281511 Z M62.1436888,61.1126761 C62.2518167,61.1126761 62.3244652,61.0957811 62.3616342,61.0619911 C62.3988031,61.0282011 62.4173876,60.9656896 62.4173876,60.8744567 C62.4173876,60.7730868 62.3954241,60.6784748 62.3514972,60.5906209 L62.3514972,60.5906209 L61.8142365,60.5906209 C61.7905835,60.1209402 61.778757,59.5701635 61.778757,58.9382909 L61.778757,58.9382909 L61.778757,56.6321248 C61.778757,56.4631749 61.771999,56.3440652 61.758483,56.2747957 C61.744967,56.2055263 61.6909031,56.1582203 61.5962911,56.1328778 C61.5016792,56.1075353 61.3209028,56.0948641 61.053962,56.0948641 C60.6755142,56.0948641 60.4203998,56.1100696 60.2886189,56.1404806 C60.156838,56.1708916 60.0909475,56.2553665 60.0909475,56.3939054 C60.0909475,56.4885174 60.112911,56.5713028 60.156838,56.6422618 C60.2751029,56.6422618 60.3739386,56.6540883 60.4533451,56.6777413 C60.5327515,56.7013942 60.5944182,56.7622162 60.6383452,56.8602071 C60.6822722,56.9581981 60.7101489,57.1364402 60.7219754,57.3949336 C60.7314366,57.6017282 60.7371133,57.9723367 60.7390056,58.5067591 L60.7397151,58.9382909 C60.7397151,59.5701635 60.7278887,60.1209402 60.7042357,60.5906209 L60.7042357,60.5906209 L60.3291669,60.5906209 C60.2413129,60.5906209 60.1796462,60.6083606 60.1441668,60.6438401 C60.1086873,60.6793196 60.0909475,60.7342283 60.0909475,60.8085662 C60.0909475,60.9031782 60.1112215,61.0045481 60.1517695,61.1126761 L60.1517695,61.1126761 L62.1436888,61.1126761 Z M68.0042535,61.1126761 C68.2610574,61.1126761 68.4316968,61.0839546 68.5161717,61.0265116 C68.6006467,60.9690686 68.6428842,60.8710777 68.6428842,60.7325388 C68.6428842,60.5500729 68.5989572,60.370986 68.5111032,60.1952781 C67.9197786,60.42505 67.4179974,60.5399359 67.0057597,60.5399359 L67.0057597,60.5399359 L66.0883617,60.5399359 C66.1018777,60.35747 66.2598459,60.0246387 66.5622662,59.541442 C66.8646865,59.0582453 67.1747096,58.5742038 67.4923354,58.0893176 C67.8099612,57.6044314 68.04987,57.2428787 68.2120619,57.0046593 C68.3742538,56.7664399 68.4553498,56.5746818 68.4553498,56.4293849 C68.4553498,56.324636 68.4266283,56.2511428 68.3691853,56.2089053 C68.3117424,56.1666678 68.2120619,56.1455491 68.070144,56.1455491 L68.070144,56.1455491 L65.0493198,56.1455491 C64.863475,56.1455491 64.7367625,56.1725811 64.6691826,56.226645 C64.6016026,56.280709 64.5678126,56.3668734 64.5678126,56.4851384 C64.5678126,56.6844992 64.6387716,56.8855496 64.7806895,57.0882895 C65.2740232,56.8416227 65.6338865,56.7182892 65.8602794,56.7182892 L65.8602794,56.7182892 L67.1071296,56.7182892 C67.0091387,56.9683351 66.839344,57.2910294 66.5977457,57.6863721 C66.3561473,58.0817149 65.9988183,58.6139071 65.5257586,59.2829487 C65.0526988,59.9519903 64.772242,60.3532463 64.6843881,60.4867167 C64.5965341,60.6201871 64.5526071,60.7376073 64.5526071,60.8389772 C64.5526071,61.0214431 64.6607351,61.1126761 64.8769909,61.1126761 L64.8769909,61.1126761 L68.0042535,61.1126761 Z M74.2702981,61.1126761 C74.5271019,61.1126761 74.6977413,61.0839546 74.7822162,61.0265116 C74.8666912,60.9690686 74.9089287,60.8710777 74.9089287,60.7325388 C74.9089287,60.5500729 74.8650017,60.370986 74.7771477,60.1952781 C74.1858231,60.42505 73.6840419,60.5399359 73.2718042,60.5399359 L73.2718042,60.5399359 L72.3544062,60.5399359 C72.3679222,60.35747 72.5258904,60.0246387 72.8283107,59.541442 C73.130731,59.0582453 73.4407541,58.5742038 73.7583799,58.0893176 C74.0760057,57.6044314 74.3159145,57.2428787 74.4781064,57.0046593 C74.6402983,56.7664399 74.7213943,56.5746818 74.7213943,56.4293849 C74.7213943,56.324636 74.6926728,56.2511428 74.6352298,56.2089053 C74.5777869,56.1666678 74.4781064,56.1455491 74.3361885,56.1455491 L74.3361885,56.1455491 L71.3153644,56.1455491 C71.1295195,56.1455491 71.002807,56.1725811 70.9352271,56.226645 C70.8676471,56.280709 70.8338571,56.3668734 70.8338571,56.4851384 C70.8338571,56.6844992 70.9048161,56.8855496 71.046734,57.0882895 C71.5400677,56.8416227 71.899931,56.7182892 72.1263239,56.7182892 L72.1263239,56.7182892 L73.3731741,56.7182892 C73.2751832,56.9683351 73.1053885,57.2910294 72.8637902,57.6863721 C72.6221918,58.0817149 72.2648628,58.6139071 71.7918031,59.2829487 C71.3187434,59.9519903 71.0382865,60.3532463 70.9504326,60.4867167 C70.8625786,60.6201871 70.8186517,60.7376073 70.8186517,60.8389772 C70.8186517,61.0214431 70.9267796,61.1126761 71.1430355,61.1126761 L71.1430355,61.1126761 L74.2702981,61.1126761 Z M78.4785328,61.214046 C78.7657476,61.214046 79.0588757,61.1709638 79.357917,61.0847993 C79.6569584,60.9986349 79.9483969,60.8727672 80.2322328,60.7071963 C80.3673927,60.9538632 80.4662284,61.0915573 80.5287398,61.1202788 C80.5912513,61.1490003 80.6816395,61.163361 80.7999044,61.163361 C81.0431923,61.163361 81.2366399,61.13295 81.3802473,61.0721281 C81.5238547,61.0113061 81.5956584,60.9234522 81.5956584,60.8085662 C81.5956584,60.7376073 81.5753844,60.6649588 81.5348365,60.5906209 C81.3895395,60.6210319 81.2856354,60.5568309 81.2231239,60.398018 C81.1606124,60.2392051 81.1293567,59.7982459 81.1293567,59.0751403 L81.1293567,59.0751403 L81.1293567,57.5140432 C81.1293567,56.9632666 80.986594,56.5848188 80.7010687,56.3786999 C80.4155434,56.1725811 79.9737394,56.0695216 79.3756568,56.0695216 C78.92625,56.0695216 78.5021858,56.0965536 78.103464,56.1506176 C77.7047423,56.2046815 77.4775047,56.250298 77.4217512,56.287467 C77.3659977,56.324636 77.338121,56.3770104 77.338121,56.4445904 C77.338121,56.5459603 77.3744452,56.6794308 77.4470937,56.8450017 C77.5197422,57.0105725 77.5907011,57.1246137 77.6599706,57.1871252 C77.72924,57.2496367 77.8517287,57.2580841 78.0274366,57.2124677 C78.2031445,57.1668512 78.3002907,57.137285 78.3188752,57.123769 C78.3374597,57.110253 78.3957474,57.0055041 78.4937383,56.8095222 C78.6795832,56.7689742 78.8738756,56.7487002 79.0766155,56.7487002 C79.4584422,56.7487002 79.7245383,56.8652756 79.8749037,57.0984265 C80.0252691,57.3315774 80.1105888,57.7455046 80.1308628,58.3402082 L80.1308628,58.3402082 L79.3857938,58.3402082 C78.6153822,58.3402082 78.0460211,58.4770577 77.6777103,58.7507565 C77.3093995,59.0244553 77.1252441,59.4197981 77.1252441,59.9367848 C77.1252441,60.3591595 77.2367511,60.6776301 77.4597649,60.8921964 C77.6827788,61.1067628 78.0223681,61.214046 78.4785328,61.214046 Z M79.030999,60.5348674 C78.7437842,60.5348674 78.531752,60.4664427 78.3949026,60.3295933 C78.2580532,60.1927439 78.1896285,59.9891592 78.1896285,59.7188394 C78.1896285,59.4417616 78.2665007,59.2390217 78.4202451,59.1106198 C78.5739895,58.9822179 78.8434646,58.9180169 79.2286704,58.9180169 C79.5395382,58.9180169 79.840269,58.9433594 80.1308628,58.9940443 L80.1308628,58.9940443 L80.1308628,59.2930857 C80.1308628,59.6309855 80.0996071,59.8784971 80.0370956,60.0356205 C79.9745842,60.1927439 79.847027,60.3152325 79.6544241,60.4030865 C79.4618212,60.4909404 79.2540128,60.5348674 79.030999,60.5348674 Z M90.3618542,61.1126761 C90.4463292,61.1126761 90.5054616,61.0957811 90.5392516,61.0619911 C90.5730416,61.0282011 90.5899366,60.9690686 90.5899366,60.8845937 C90.5899366,60.7899818 90.5696626,60.6919908 90.5291146,60.5906209 L90.5291146,60.5906209 L89.9056895,60.5906209 C89.8816611,60.1731269 89.868312,59.1909648 89.8656421,57.6441347 L89.8654348,56.7511716 C89.8673895,55.8215283 89.8791183,55.1432154 89.900621,54.7162329 L89.900621,54.7162329 L90.3618542,54.7162329 C90.4463292,54.7162329 90.5054616,54.699338 90.5392516,54.665548 C90.5730416,54.631758 90.5899366,54.5726255 90.5899366,54.4881506 C90.5899366,54.3935386 90.5696626,54.2955477 90.5291146,54.1941778 L90.5291146,54.1941778 L88.2432225,54.1941778 C88.1621266,54.1941778 88.1038389,54.210228 88.0683594,54.2423285 C88.0328799,54.274429 88.0151402,54.3259587 88.0151402,54.3969176 C88.0151402,54.4949086 88.0371036,54.601347 88.0810306,54.7162329 L88.0810306,54.7162329 L88.7044557,54.7162329 C88.7281087,55.1859137 88.7416247,55.9394302 88.7450037,56.9767826 C88.7450037,58.9163274 88.7314877,60.1209402 88.7044557,60.5906209 L88.7044557,60.5906209 L88.2432225,60.5906209 C88.1621266,60.5906209 88.1038389,60.6066711 88.0683594,60.6387716 C88.0328799,60.6708721 88.0151402,60.7224018 88.0151402,60.7933608 C88.0151402,60.8913517 88.0371036,60.9977901 88.0810306,61.1126761 L88.0810306,61.1126761 L90.3618542,61.1126761 Z M95.0262537,61.1126761 C95.1310027,61.1126761 95.2019616,61.0957811 95.2391306,61.0619911 C95.2762996,61.0282011 95.2948841,60.9656896 95.2948841,60.8744567 C95.2948841,60.7730868 95.2746101,60.6784748 95.2340621,60.5906209 L95.2340621,60.5906209 L94.6714589,60.5906209 C94.6478059,60.0871502 94.6359795,59.5363735 94.6359795,58.9382909 L94.6359795,58.9382909 L94.6359795,57.868838 C94.6359795,57.4566003 94.7381941,57.171075 94.9426235,57.012262 C95.1470529,56.8534491 95.389496,56.7740427 95.6699528,56.7740427 C95.9977156,56.7740427 96.2350902,56.8889286 96.3820766,57.1187005 C96.5290631,57.3484723 96.6025563,57.8113951 96.6025563,58.5074686 L96.6025563,58.5074686 L96.6025563,60.6919908 C96.6025563,60.8305297 96.6211407,60.9293654 96.6583097,60.9884979 C96.6954787,61.0476303 96.7664377,61.0831098 96.8711866,61.0949363 C96.9759355,61.1067628 97.2631504,61.1126761 97.7328311,61.1126761 C97.888265,61.1126761 97.9947034,61.0974706 98.0521464,61.0670596 C98.1095893,61.0366486 98.1383108,60.9758266 98.1383108,60.8845937 C98.1383108,60.7866028 98.1197263,60.6886118 98.0825574,60.5906209 C97.8933335,60.5939999 97.7725343,60.5416254 97.7201598,60.4334975 C97.6677854,60.3253695 97.6415981,59.3623551 97.6415981,57.5444542 C97.6415981,56.9598876 97.5275569,56.5637001 97.2994746,56.3558917 C97.0713922,56.1480833 96.7326477,56.0441791 96.2832409,56.0441791 C96.0264371,56.0441791 95.7349985,56.0965536 95.4089252,56.2013025 C95.0828519,56.3060515 94.7525549,56.4699329 94.4180341,56.6929467 C94.4383081,56.4496589 94.4383081,56.250298 94.4180341,56.0948641 C93.5935586,56.1218961 93.1458414,56.1480833 93.0748824,56.1734258 C93.0039234,56.1987683 92.968444,56.257056 92.968444,56.348289 C92.968444,56.4496589 92.9904075,56.5476498 93.0343344,56.6422618 C93.2539693,56.6422618 93.4026452,56.7216682 93.4803622,56.8804811 C93.5580791,57.039294 93.5969376,57.6171027 93.5969376,58.6139071 C93.5969376,59.3944556 93.5834216,60.0533602 93.5563896,60.5906209 L93.5563896,60.5906209 L93.2066633,60.5906209 C93.1221884,60.5906209 93.0613664,60.6083606 93.0241974,60.6438401 C92.9870285,60.6793196 92.968444,60.7342283 92.968444,60.8085662 C92.968444,60.9031782 92.9904075,61.0045481 93.0343344,61.1126761 L93.0343344,61.1126761 L95.0262537,61.1126761 Z M108.318617,61.1126761 C108.403092,61.1126761 108.462225,61.0957811 108.496015,61.0619911 C108.529805,61.0282011 108.5467,60.9690686 108.5467,60.8845937 C108.5467,60.7899818 108.526426,60.6919908 108.485878,60.5906209 L108.485878,60.5906209 L107.761083,60.5906209 C107.734051,60.1209402 107.720535,58.9366014 107.720535,57.0376045 L107.720816,56.7753802 C107.722881,55.8404772 107.736303,55.1980217 107.761083,54.8480139 L107.761083,54.8480139 L107.933412,54.8480139 C108.835604,54.8480139 109.568847,54.9679683 110.133139,55.2078771 C110.271678,54.9950003 110.340948,54.7702969 110.340948,54.5337671 C110.340948,54.4053651 110.311381,54.3166664 110.252249,54.267671 C110.193116,54.2186755 110.089212,54.1941778 109.940536,54.1941778 L109.940536,54.1941778 L106.772726,54.1941778 C105.681309,54.1941778 104.848386,54.1181503 104.273957,53.9660954 C104.179345,54.1891093 104.132039,54.3952281 104.132039,54.584452 C104.132039,54.7162329 104.16076,54.8057764 104.218203,54.8530824 C104.275646,54.9003883 104.378706,54.9240413 104.527382,54.9240413 C104.682815,54.9240413 105.360305,54.8986988 106.559849,54.8480139 C106.586881,55.2298406 106.600397,55.9394302 106.600397,56.9767826 L106.599948,57.5648405 C106.597402,59.1617868 106.584035,60.1703802 106.559849,60.5906209 L106.559849,60.5906209 L105.997246,60.5906209 C105.91615,60.5906209 105.857862,60.6066711 105.822383,60.6387716 C105.786903,60.6708721 105.769163,60.7224018 105.769163,60.7933608 C105.769163,60.8913517 105.791127,60.9977901 105.835054,61.1126761 L105.835054,61.1126761 L108.318617,61.1126761 Z M113.383428,61.214046 C114.170735,61.214046 114.773041,60.9640001 115.190347,60.4639085 C115.607653,59.9638168 115.816307,59.2643642 115.816307,58.3655507 C115.816307,57.5782442 115.643978,56.9902986 115.29932,56.6017138 C114.954662,56.213129 114.415712,56.0188367 113.682469,56.0188367 C112.895163,56.0188367 112.292856,56.2688825 111.87555,56.7689742 C111.458244,57.2690659 111.249591,57.970208 111.249591,58.8724004 C111.249591,59.6563279 111.42192,60.2425841 111.766577,60.6311688 C112.111235,61.0197536 112.650185,61.214046 113.383428,61.214046 Z M113.576031,60.5348674 C113.143519,60.5348674 112.838565,60.3659175 112.661167,60.0280177 C112.48377,59.6901179 112.395071,59.1748207 112.395071,58.4821262 C112.395071,57.8739065 112.481236,57.4244998 112.653564,57.133906 C112.825893,56.8433122 113.104661,56.6980152 113.489866,56.6980152 C113.922378,56.6980152 114.227333,56.8669651 114.40473,57.2048649 C114.582128,57.5427647 114.670826,58.0597514 114.670826,58.755825 C114.670826,59.3606656 114.584662,59.8083828 114.412333,60.0989767 C114.240004,60.3895705 113.961237,60.5348674 113.576031,60.5348674 Z M123.273448,61.214046 C123.496462,61.214046 123.67048,61.1439318 123.795503,61.0037034 C123.920526,60.863475 124.167193,60.1995019 124.535504,59.0117841 C124.903814,57.8240663 125.143723,57.059568 125.25523,56.7182892 L125.25523,56.7182892 L125.326189,56.7182892 C125.434317,56.7182892 125.510344,56.6997047 125.554271,56.6625358 C125.598198,56.6253668 125.620162,56.5544078 125.620162,56.4496589 C125.620162,56.341531 125.598198,56.240161 125.554271,56.1455491 L125.554271,56.1455491 L124.241531,56.1455491 C124.150298,56.1455491 124.085252,56.1658231 124.046394,56.206371 C124.007535,56.246919 123.988106,56.317878 123.988106,56.4192479 C123.988106,56.5206178 124.010069,56.6202983 124.053996,56.7182892 L124.053996,56.7182892 L124.342901,56.7182892 C124.305732,57.046052 124.16128,57.7277649 123.909544,58.7634277 C123.657809,59.7990906 123.515891,60.316922 123.48379,60.316922 C123.45169,60.316922 123.328357,59.8235883 123.11379,58.8369209 C122.899224,57.8502535 122.765753,57.2014859 122.713379,56.8906181 C122.661004,56.5797503 122.613698,56.3820789 122.571461,56.297604 C122.529224,56.213129 122.459954,56.1582203 122.363653,56.1328778 C122.267351,56.1075353 121.911712,56.1033116 121.296734,56.1202066 C121.191985,56.6844992 121.013743,57.525025 120.762008,58.6417838 C120.510272,59.7585426 120.368354,60.316922 120.336254,60.316922 C120.304153,60.316922 120.185888,59.8286568 119.981459,58.8521264 C119.77703,57.875596 119.650317,57.2310522 119.601322,56.9184949 C119.552326,56.6059375 119.508399,56.4074214 119.469541,56.3229465 C119.430682,56.2384715 119.364792,56.1793391 119.271869,56.1455491 C119.178947,56.1117591 119.010842,56.0948641 118.767554,56.0948641 C118.358695,56.0948641 118.10527,56.1083801 118.00728,56.1354121 C117.909289,56.1624441 117.860293,56.2317135 117.860293,56.3432205 C117.860293,56.4479694 117.882257,56.5476498 117.926184,56.6422618 C118.044448,56.6422618 118.133147,56.6532435 118.19228,56.675207 C118.251412,56.6971705 118.310545,56.752924 118.369677,56.8424674 C118.42881,56.9320108 118.4947,57.0882895 118.567348,57.3113034 C118.639997,57.5343172 118.813171,58.2219433 119.086869,59.3741816 C119.360568,60.5264199 119.514313,61.1211236 119.548103,61.1582925 C119.581893,61.1954615 119.809975,61.214046 120.23235,61.214046 C120.445227,61.214046 120.613332,61.1439318 120.736665,61.0037034 C120.859999,60.863475 121.05767,60.2011914 121.329679,59.0168526 C121.601689,57.8325138 121.752899,57.2403444 121.78331,57.2403444 C121.813721,57.2403444 121.969155,57.8840435 122.249611,59.1714417 C122.530068,60.45884 122.686347,61.1211236 122.718447,61.1582925 C122.750548,61.1954615 122.935548,61.214046 123.273448,61.214046 Z M129.868945,61.1126761 C129.973694,61.1126761 130.044653,61.0957811 130.081821,61.0619911 C130.11899,61.0282011 130.137575,60.9656896 130.137575,60.8744567 C130.137575,60.7730868 130.117301,60.6784748 130.076753,60.5906209 L130.076753,60.5906209 L129.51415,60.5906209 C129.490497,60.0871502 129.47867,59.5363735 129.47867,58.9382909 L129.47867,58.9382909 L129.47867,57.868838 C129.47867,57.4566003 129.580885,57.171075 129.785314,57.012262 C129.989744,56.8534491 130.232187,56.7740427 130.512644,56.7740427 C130.840407,56.7740427 131.077781,56.8889286 131.224768,57.1187005 C131.371754,57.3484723 131.445247,57.8113951 131.445247,58.5074686 L131.445247,58.5074686 L131.445247,60.6919908 C131.445247,60.8305297 131.463832,60.9293654 131.501001,60.9884979 C131.53817,61.0476303 131.609129,61.0831098 131.713878,61.0949363 C131.818626,61.1067628 132.105841,61.1126761 132.575522,61.1126761 C132.730956,61.1126761 132.837394,61.0974706 132.894837,61.0670596 C132.95228,61.0366486 132.981002,60.9758266 132.981002,60.8845937 C132.981002,60.7866028 132.962417,60.6886118 132.925248,60.5906209 C132.736024,60.5939999 132.615225,60.5416254 132.562851,60.4334975 C132.510476,60.3253695 132.484289,59.3623551 132.484289,57.5444542 C132.484289,56.9598876 132.370248,56.5637001 132.142165,56.3558917 C131.914083,56.1480833 131.575339,56.0441791 131.125932,56.0441791 C130.869128,56.0441791 130.577689,56.0965536 130.251616,56.2013025 C129.925543,56.3060515 129.595246,56.4699329 129.260725,56.6929467 C129.280999,56.4496589 129.280999,56.250298 129.260725,56.0948641 C128.436249,56.1218961 127.988532,56.1480833 127.917573,56.1734258 C127.846614,56.1987683 127.811135,56.257056 127.811135,56.348289 C127.811135,56.4496589 127.833098,56.5476498 127.877025,56.6422618 C128.09666,56.6422618 128.245336,56.7216682 128.323053,56.8804811 C128.40077,57.039294 128.439628,57.6171027 128.439628,58.6139071 C128.439628,59.3944556 128.426113,60.0533602 128.399081,60.5906209 L128.399081,60.5906209 L128.049354,60.5906209 C127.964879,60.5906209 127.904057,60.6083606 127.866888,60.6438401 C127.829719,60.6793196 127.811135,60.7342283 127.811135,60.8085662 C127.811135,60.9031782 127.833098,61.0045481 127.877025,61.1126761 L127.877025,61.1126761 L129.868945,61.1126761 Z" id="BestPizzaInTown" fill="#262928" fill-rule="nonzero"></path>
            <polygon id="Star" stroke="#000000" stroke-width="0.6" points="6.6056338 60.1378732 3.27761026 61.8875188 3.9132062 58.1817101 1.2207786 55.5572418 4.94162203 55.0165716 6.6056338 51.6449155 8.26964557 55.0165716 11.990489 55.5572418 9.29806141 58.1817101 9.93365734 61.8875188"></polygon>
            <polygon id="Star-Copy" stroke="#000000" stroke-width="0.6" points="150.042254 60.1378732 146.71423 61.8875188 147.349826 58.1817101 144.657398 55.5572418 148.378242 55.0165716 150.042254 51.6449155 151.706265 55.0165716 155.427109 55.5572418 152.734681 58.1817101 153.370277 61.8875188"></polygon>
            <line x1="1.41549296" y1="7.04632394" x2="55.2042254" y2="7.04632394" id="Line" stroke="#000000" stroke-width="0.5" stroke-linecap="round" stroke-linejoin="round"></line>
            <line x1="1.41549296" y1="41.9618169" x2="55.2042254" y2="41.9618169" id="Line-Copy-2" stroke="#000000" stroke-width="0.5" stroke-linecap="round" stroke-linejoin="round"></line>
            <line x1="100.971831" y1="7.04632394" x2="154.760563" y2="7.04632394" id="Line-Copy" stroke="#000000" stroke-width="0.5" stroke-linecap="round" stroke-linejoin="round"></line>
            <line x1="1.41549296" y1="5.159" x2="55.2042254" y2="5.159" id="Line" stroke="#000000" stroke-width="0.5" stroke-linecap="round" stroke-linejoin="round"></line>
            <line x1="100.971831" y1="5.159" x2="154.760563" y2="5.159" id="Line-Copy" stroke="#000000" stroke-width="0.5" stroke-linecap="round" stroke-linejoin="round"></line>
            <line x1="100.971831" y1="41.9618169" x2="154.760563" y2="41.9618169" id="Line-Copy-3" stroke="#000000" stroke-width="0.5" stroke-linecap="round" stroke-linejoin="round"></line>
            <line x1="1.41549296" y1="43.8491408" x2="55.2042254" y2="43.8491408" id="Line-Copy-2" stroke="#000000" stroke-width="0.5" stroke-linecap="round" stroke-linejoin="round"></line>
            <line x1="100.971831" y1="43.8491408" x2="154.760563" y2="43.8491408" id="Line-Copy-3" stroke="#000000" stroke-width="0.5" stroke-linecap="round" stroke-linejoin="round"></line>
        </g>
    </g>
</svg>