<?xml version="1.0" encoding="UTF-8"?>
<svg width="300px" height="300px" viewBox="0 0 300 300" version="1.1" xmlns="http://www.w3.org/2000/svg" xmlns:xlink="http://www.w3.org/1999/xlink">
    <title>product_placeholder</title>
    <g id="product_placeholder" stroke="none" stroke-width="1" fill="none" fill-rule="evenodd">
        <rect fill="#FFFFFF" x="0" y="0" width="300" height="300"></rect>
        <rect id="Rectangle" fill="#FAFAFA" x="0" y="0" width="300" height="300"></rect>
        <path d="M149.969786,77.3947365 C150.211501,78.8148145 154.834308,105.947368 154.834308,116.310916 C154.834308,132.11306 146.434698,143.383041 134.016569,147.915205 L137.91423,219.855751 C138.125731,223.995127 134.832359,227.5 130.662768,227.5 L111.325536,227.5 C107.18616,227.5 103.862573,224.025342 104.074074,219.855751 L107.971735,147.915205 C95.5233915,143.383041 87.1539958,132.082846 87.1539958,116.310916 C87.1539958,105.917154 91.7768028,78.8148145 92.0185182,77.3947365 C92.9853798,71.2612082 105.705653,71.1705649 106.491228,77.7270952 L106.491228,120.389863 C106.884015,121.417154 111.053606,121.356725 111.325536,120.389863 C111.748538,112.745614 113.712475,78.3313837 113.74269,77.5458086 C114.739766,71.2612082 127.248538,71.2612082 128.2154,77.5458086 C128.275828,78.3615981 130.209552,112.745614 130.632554,120.389863 C130.904483,121.356725 135.104288,121.417154 135.466862,120.389863 L135.466862,77.7270952 C136.252437,71.2007793 149.002924,71.2612082 149.969786,77.3947365 Z M185.98538,163.717349 L181.453217,219.64425 C181.090643,223.874269 184.444445,227.5 188.674464,227.5 L205.594542,227.5 C209.613061,227.5 212.846004,224.267057 212.846004,220.248538 L212.846004,80.0536059 C212.846004,76.0653018 209.613061,72.8021439 205.594542,72.8021439 C180.667641,72.8021439 138.699805,126.734893 185.98538,163.717349 Z" id="utensils" stroke="#D3D3D3" stroke-width="2" fill-rule="nonzero"></path>
    </g>
</svg>